<?xml version="1.0" encoding="utf-8"?>
<!-- Generator: Adobe Illustrator 22.1.0, SVG Export Plug-In . SVG Version: 6.00 Build 0)  -->
<svg version="1.1" id="Layer_1" xmlns="http://www.w3.org/2000/svg" xmlns:xlink="http://www.w3.org/1999/xlink" x="0px" y="0px"
	 viewBox="0 0 355 25" style="enable-background:new 0 0 355 25;" xml:space="preserve">
<style type="text/css">
	.st0{fill:#FFFFFF;}
</style>
<g>
	<g>
		<path class="st0" d="M12,12.3c0-3.4,2.3-5.9,5.9-6.3c1.7-0.2,11-0.1,11.1-0.1l0.2,0l0-5.6H29l-10.5,0c-1.2,0.1-3.1,0.2-5.1,1
			c-1.9,0.9-3.6,2.2-4.8,3.9C7,7.3,6.2,9.8,6.2,12.4c0,0.8,0.1,1.7,0.2,2.5c0.8,3.7,3.2,6.8,6.7,8.4c1.2,0.5,3,1.1,6.7,1.3
			c0,0,2,0,2,0c0,0,7.3,0,7.3,0h0.2l0-5.9l-0.2,0c-0.1,0-8.1,0.2-10.9-0.1C13.6,18.3,12,15,12,12.3 M49.2,7.5c0,1-0.8,1.9-1.7,2
			l-8.5,0l0-4h8.5h0l0,0C48.5,5.7,49.2,6.6,49.2,7.5 M38.9,14.9h8.3h0l0,0c1,0.1,1.8,1,1.8,2c0,1.1-0.9,2.1-2,2.1h-8.1V14.9z
			 M51,12.1c3.1-1,3.7-3.7,3.7-5.8c0-3.3-2.3-6.1-9.1-6.1l-12.7,0v24.5h12.7c6.8,0,9.4-3.5,9.4-7C54.9,13.4,51,12.1,51,12.1
			 M74.1,7.9c-0.1,0.8-0.9,1.7-1.9,1.7l-8.4,0V5.6h8.4c1,0,1.8,0.7,1.9,1.7V7.9z M79.7,6.7c0-5.3-4.6-6.4-8.8-6.4h-13v24.5h6v-9.9
			l6.6,0c1.9,0,3.3,1.6,3.3,3.5v6.4l5.8,0l0-7.9c0-3.7-3.5-4.7-3.5-4.7S79.7,11,79.7,6.7 M89.4,19.2v-4.3h14V9.5h-14l0-3.9h15.5
			l0-5.3H83.4v24.5h21.5l0-5.6H89.4z"/>
		<path class="st0" d="M319.8,18h5.7v-1.2h-4.4v-4h4.2v-1.2h-4.2v-3h4.4V7.5h-5.7V18z M306.6,18h1.3v-7.9l7.9,8.3v-11h-1.3v7.8
			L306.6,7V18z M298.3,8.7h0.4c1.3,0,2.9,0.2,2.9,1.9c0,1.7-1.5,1.9-2.8,1.9h-0.4V8.7z M300.2,13.5c1.5-0.2,2.5-1.4,2.5-3
			c0-1-0.5-2-1.4-2.5c-0.8-0.5-1.8-0.5-2.8-0.5H297V18h1.3v-4.5h0.5L302,18h1.6L300.2,13.5z M285.4,7.5v6.7c0,2.3,1.4,4.1,3.9,4.1
			s3.9-1.8,3.9-4.1V7.5h-1.3v6.2c0,1.7-0.5,3.3-2.5,3.3s-2.5-1.6-2.5-3.3V7.5H285.4z M276.6,17c-2.3,0-4.2-1.9-4.2-4.3
			c0-2.3,1.7-4.3,4.2-4.3s4.2,1.9,4.2,4.3C280.8,15.2,278.9,17,276.6,17 M276.6,7.3c-3,0-5.5,2.5-5.5,5.5c0,3.1,2.5,5.5,5.5,5.5
			s5.5-2.4,5.5-5.5C282.2,9.7,279.7,7.3,276.6,7.3 M262.1,18h2.5c1.9,0,3.7-0.8,3.7-3c0-1.2-0.9-2.4-2.1-2.7v0
			c0.7-0.3,1.1-1.2,1.1-2c0-2.4-1.9-2.9-3.9-2.9h-1.3V18z M263.5,13.2h0.8c1.2,0,2.7,0.3,2.7,1.8c0,1.5-1.3,1.9-2.5,1.9h-1V13.2z
			 M263.5,8.7h0.4c1.2,0,2.2,0.3,2.2,1.7c0,1.5-1,1.8-2.3,1.8h-0.3V8.7z M256.1,7.5h-1.3V18h4.5v-1.2h-3.2V7.5z M245.4,18h5.7v-1.2
			h-4.4v-4h4.2v-1.2h-4.2v-3h4.4V7.5h-5.7V18z M236.3,18.3l3.2-7.2h0l1.2,7h1.4l-2.2-11l-3.6,8.3L232.7,7l-2.2,11h1.4l1.2-7h0
			L236.3,18.3z M215.8,18h5.7v-1.2h-4.4v-4h4.2v-1.2h-4.2v-3h4.4V7.5h-5.7V18z M207.4,8.7h0.4c1.3,0,2.9,0.2,2.9,1.9
			c0,1.7-1.5,1.9-2.8,1.9h-0.4V8.7z M209.3,13.5c1.5-0.2,2.5-1.4,2.5-3c0-1-0.5-2-1.4-2.5c-0.8-0.5-1.8-0.5-2.8-0.5h-1.6V18h1.3
			v-4.5h0.5l3.1,4.5h1.6L209.3,13.5z M196.4,18h2.5c1.9,0,3.7-0.8,3.7-3c0-1.2-0.9-2.4-2.1-2.7v0c0.7-0.3,1.1-1.2,1.1-2
			c0-2.4-1.9-2.9-3.9-2.9h-1.3V18z M197.7,13.2h0.8c1.2,0,2.7,0.3,2.7,1.8c0,1.5-1.3,1.9-2.5,1.9h-1V13.2z M197.7,8.7h0.4
			c1.2,0,2.2,0.3,2.2,1.7c0,1.5-1,1.8-2.3,1.8h-0.3V8.7z M192.9,8c-0.8-0.5-1.7-0.7-2.7-0.7c-3.1,0-5.6,2.4-5.6,5.6
			c0,3.1,2.5,5.4,5.5,5.4c0.9,0,2-0.3,2.8-0.7V16c-0.8,0.7-1.8,1.1-2.8,1.1c-2.4,0-4.1-2-4.1-4.3c0-2.3,1.8-4.3,4.2-4.3
			c1,0,2,0.4,2.8,1V8z M173.4,8.7h2.5V7.5h-6.3v1.2h2.5V18h1.3V8.7z M166.5,7.5h-1.3V18h1.3V7.5z M161.3,8.9c-0.6-1-1.5-1.6-2.7-1.6
			c-1.6,0-3.1,1-3.1,2.7c0,1.5,1.1,2.2,2.3,2.7l0.7,0.3c0.9,0.4,1.8,0.9,1.8,2c0,1.1-0.8,2.1-1.9,2.1c-1.1,0-2.1-0.8-2-2l-1.3,0.3
			c0.2,1.7,1.6,3,3.3,3c1.9,0,3.4-1.4,3.4-3.3c0-1.8-1.1-2.6-2.6-3.2l-0.8-0.3c-0.7-0.3-1.5-0.7-1.5-1.5c0-0.9,0.9-1.5,1.8-1.5
			c0.8,0,1.3,0.3,1.7,1L161.3,8.9z M151.5,7.5h-1.3V18h1.3V7.5z M139.5,7.5h-1.4l4.6,11.1l4.6-11.1h-1.4l-3.1,7.8L139.5,7.5z"/>
	</g>
	<polygon class="st0" points="339.2,17.3 342.2,14.2 344.9,21.4 347,20.7 344.3,13.5 348.8,13.5 339.2,3.6 	"/>
</g>
</svg>
